<?xml version="1.0" encoding="utf-8"?>
<!-- Generator: Adobe Illustrator 16.0.4, SVG Export Plug-In . SVG Version: 6.00 Build 0)  -->
<!DOCTYPE svg PUBLIC "-//W3C//DTD SVG 1.1//EN" "http://www.w3.org/Graphics/SVG/1.1/DTD/svg11.dtd">
<svg version="1.1" id="Layer_1" xmlns="http://www.w3.org/2000/svg" xmlns:xlink="http://www.w3.org/1999/xlink" x="0px" y="0px"
	 width="360px" height="504px" viewBox="0 0 360 504" enable-background="new 0 0 360 504" xml:space="preserve">
<g>
	<path fill-rule="evenodd" clip-rule="evenodd" fill="#FFFFFF" d="M63.979,194.018c0.653-1.573,1.201-3.202,1.987-4.706
		c1.037-1.983,2.629-3.473,4.575-4.628c31.226-18.54,62.44-37.098,93.657-55.651c1.717-1.021,3.426-2.056,5.15-3.063
		c2.679-1.565,5.228-3.413,8.391-3.952c1.28,0,2.56,0,3.84,0c6.352,1.96,11.566,6.041,17.173,9.352
		c29.927,17.672,59.782,35.466,89.65,53.236c4.402,2.619,6.683,6.556,6.686,11.686c0.02,37.032,0.017,74.064,0.003,111.095
		c-0.002,5.136-2.265,9.078-6.667,11.697c-34.092,20.283-68.191,40.552-102.317,60.777c-1.444,0.855-3.172,1.234-4.768,1.836
		c-1.2,0-2.399,0-3.6,0c-5.121-1.16-9.146-4.465-13.512-7.048c-31.187-18.449-62.312-37.004-93.477-55.493
		c-3.411-2.023-5.411-4.983-6.479-8.697c-0.075-0.261-0.194-0.508-0.293-0.762C63.979,271.138,63.979,232.578,63.979,194.018z
		 M292.978,251.908c0-18.599,0.018-37.197-0.015-55.796c-0.007-4.112-1.887-7.294-5.355-9.465c-2.945-1.843-5.965-3.57-8.953-5.346
		c-31.188-18.534-62.371-37.074-93.566-55.594c-3.688-2.189-7.439-2.141-11.132,0.038c-5.265,3.106-10.512,6.243-15.768,9.365
		c-28.888,17.164-57.784,34.312-86.652,51.508c-3.554,2.117-5.415,5.421-5.418,9.565c-0.029,37.117-0.029,74.235,0,111.352
		c0.003,4.145,1.889,7.408,5.43,9.557c6.387,3.875,12.836,7.649,19.259,11.466c27.788,16.513,55.569,33.034,83.371,49.524
		c3.561,2.111,7.246,2.044,10.815-0.03c4.664-2.71,9.277-5.505,13.915-8.26c29.539-17.553,59.087-35.092,88.609-52.672
		c3.597-2.142,5.447-5.441,5.452-9.656C292.988,288.945,292.978,270.427,292.978,251.908z"/>
	<path fill-rule="evenodd" clip-rule="evenodd" fill="#FFFFFF" d="M73.026,251.858c0-16.4,0.004-32.8-0.002-49.2
		c-0.002-6.121,2.61-10.707,7.889-13.841c30.44-18.074,60.856-36.19,91.313-54.236c4.776-2.83,9.806-2.862,14.59-0.028
		c30.699,18.186,61.373,36.417,92.023,54.686c4.708,2.807,7.186,7.14,7.192,12.633c0.043,33.319,0.043,66.639,0,99.958
		c-0.008,5.543-2.532,9.87-7.286,12.703c-28.454,16.957-56.938,33.866-85.412,50.79c-2.096,1.246-4.175,2.52-6.292,3.728
		c-4.959,2.829-9.997,2.934-14.913,0.019c-30.52-18.096-61.016-36.233-91.513-54.368c-5.066-3.013-7.574-7.534-7.582-13.403
		C73.012,284.817,73.026,268.338,73.026,251.858z M246.377,243.712c-0.756-0.953-1.711-1.535-3.081-1.509
		c0.1,0.399,0.268,0.86,0.552,0.947c0.831,0.256,1.708,0.362,2.566,0.527c1.28,1.255,3.264,1.789,4.391,1.01
		c-0.773-0.205-1.411-0.373-2.165-0.573c-0.025-0.079-0.104-0.33-0.126-0.403C247.727,243.711,247.052,243.711,246.377,243.712z
		 M259.85,229.27c-0.169-0.283-0.338-0.566-0.46-0.77c-0.633,0.272-1.129,0.486-1.625,0.7c0.044,0.156,0.089,0.312,0.133,0.468
		c0.633-0.112,1.267-0.225,1.899-0.337c0.384,0.112,0.76,0.272,1.15,0.325c0.871,0.118,1.75,0.183,2.625,0.27
		c-0.01,0.169-0.02,0.339-0.029,0.508c-0.609,0.122-1.219,0.243-1.865,0.372c0.158,0.331,0.31,0.647,0.445,0.929
		c-0.68,0.167-1.257,0.308-1.834,0.45c0.04,0.154,0.081,0.308,0.121,0.461c0.477-0.116,0.976-0.379,1.424-0.311
		c0.618,0.094,1.582,0.308,1.715,0.701c0.265,0.787-0.236,1.408-1.249,1.238c-0.049-0.008-0.116,0.097-0.197,0.168
		c0.167,0.157,0.33,0.311,0.612,0.577c-0.489,0.18-0.889,0.327-1.327,0.487c0.064,0.116,0.269,0.323,0.225,0.432
		c-0.466,1.187,0.271,1.346,1.17,1.63c0.899,0.285,1.703,0.872,2.549,1.327c-0.024,0.131-0.05,0.262-0.074,0.393
		c-0.457,0.029-0.913,0.058-1.329,0.084c0.128,0.27,0.27,0.568,0.498,1.048c-0.607-0.031-1.021-0.061-1.435-0.07
		c-0.44-0.011-0.882-0.002-1.375-0.002c0.718,1.026,2.006,1.472,3.129,1.184c1.014-0.26,1.953-0.319,2.967,0.281
		c0.484,0.287,1.348-0.033,2.029-0.144c0.108-0.018,0.259-0.551,0.224-0.572c-0.509-0.309-1.028-0.62-1.584-0.826
		c-0.362-0.134-0.798-0.057-1.183-0.149c-0.521-0.125-1.023-0.324-1.535-0.49c0.009-0.126,0.017-0.252,0.025-0.378
		c1.559-0.18,3.119-0.344,4.674-0.554c0.301-0.041,0.577-0.259,0.864-0.396c-0.164-0.22-0.316-0.451-0.494-0.659
		c-0.596-0.697-1.2-1.386-1.891-2.18c0.826,0.219,1.582,0.419,2.633,0.697c-1.292-2.42-3.505-1.43-5.286-2.353
		c1.996-0.36,3.812-0.688,5.626-1.015c0.049-0.138,0.097-0.275,0.145-0.413c-1.583-0.54-3.288-0.769-4.835-1.563
		c1.049-0.188,2.097-0.255,3.142-0.231c0.679,0.016,1.337-0.116,1.268-0.848c-0.035-0.371-0.73-0.679-1.127-1.015
		c-0.396-0.542-0.064-0.886,0.585-1.188c0.301-0.14,0.457-0.652,0.595-1.026c0.025-0.07-0.335-0.313-0.542-0.431
		c-0.374-0.212-0.767-0.39-1.384-0.697c1.552-0.876,3.352-0.934,3.299-2.942c-0.001-0.056,0.094-0.148,0.161-0.167
		c1.423-0.421,1.25-1.301,0.684-2.087c0.456-0.722,0.815-1.291,1.224-1.937c0.25,0.615,0.478,1.176,0.617,1.518
		c-0.223,0.605-0.457,1.025-0.521,1.47c-0.104,0.708-0.017,1.448-0.15,2.148c-0.175,0.917-0.104,1.444,1.044,1.462
		c0.322,0.005,0.705,0.634,0.92,1.049c0.089,0.171-0.142,0.569-0.312,0.799c-0.207,0.279-0.506,0.49-0.766,0.73
		c0.362,0.177,0.726,0.353,1.087,0.53c0.168,0.082,0.335,0.167,0.514,0.255c-0.928,0.689-1.815,1.35-2.703,2.009
		c0.055,0.146,0.109,0.293,0.164,0.439c1.354,0,2.709,0,4.137,0c-0.778,1.79-2.237,2.134-3.903,2.476
		c0.614,0.354,1.229,0.708,1.682,0.968c-0.157,0.515-0.312,1.024-0.467,1.533c0.623,0.053,1.254,0.19,1.866,0.132
		c0.456-0.043,0.872-0.418,1.333-0.509c0.966-0.192,1.198-0.713,1.194-1.676c-0.039-10.36-0.037-20.72-0.019-31.079
		c0.008-3.943-1.649-6.906-5.033-8.917c-14.805-8.797-29.608-17.597-44.412-26.396c-15.663-9.309-31.322-18.625-46.993-27.921
		c-3.072-1.823-6.249-1.905-9.328-0.083c-14.891,8.81-29.756,17.662-44.629,26.501c-15.697,9.329-31.396,18.658-47.09,27.991
		c-3.223,1.916-4.866,4.773-4.872,8.512c-0.02,12.68-0.008,25.359-0.007,38.039c0,1.596,0.66,2.153,2.177,1.957
		c-0.161-0.478-0.329-0.978-0.497-1.478c0.092-0.036,0.184-0.071,0.275-0.107c0.19,0.118,0.38,0.235,0.579,0.359
		c0.361-1.102-0.156-1.815-1.656-2.175c0.188-0.415,0.363-0.804,0.561-1.241c0.528,0.289,0.909,0.503,1.296,0.708
		c0.306,0.161,0.618,0.309,0.928,0.463c-0.669-0.642-1.773-3.261-1.434-3.844c0.55,0.284,1.1,0.568,1.712,0.885
		c0.056-0.839,0.101-1.512,0.132-1.991c-0.715-0.378-1.442-0.763-2.17-1.148c0.012-0.14,0.024-0.28,0.036-0.42
		c0.574-0.067,1.153-0.103,1.719-0.213c0.362-0.071,0.703-0.253,1.053-0.386c-0.162-0.402-0.236-0.877-0.501-1.192
		c-0.678-0.807-1.44-1.542-2.081-2.214c0.554-0.629,0.947-1.076,1.298-1.474c0.375,0.113,0.732,0.22,0.847,0.255
		c0.225-0.883,0.403-1.581,0.581-2.279c0.129,0.025,0.258,0.051,0.386,0.076c0.044,0.658,0.031,1.327,0.155,1.969
		c0.065,0.335,0.371,0.624,0.568,0.933c0.2-0.221,0.378-0.47,0.607-0.656c0.346-0.281,0.728-0.52,1.094-0.776
		c0.11,0.079,0.22,0.157,0.33,0.235c-0.386,0.896-0.771,1.792-1.153,2.68c1.096,0.422,2.208,0.845,3.316,1.278
		c0.765,0.299,1.604,0.638,2.19-0.166c0.621-0.851-0.377-1.206-0.742-1.746c-0.017-0.025-0.002-0.072-0.002-0.009
		c0.782-0.441,1.525-0.86,2.467-1.392c-1.256-0.317-2.262-0.393-3.076-0.828c-0.773-0.413-1.345-1.202-2.127-1.94
		c2.007-0.503,3.76,0.856,5.717-0.564c-1.344-0.915-2.453-1.671-3.703-2.522c0.585-0.147,1.017-0.214,1.414-0.371
		c0.262-0.104,0.612-0.303,0.664-0.521c0.043-0.183-0.26-0.482-0.458-0.682c-0.329-0.331-0.698-0.624-0.922-0.821
		c0.391-1.272,1.03-1.881,2.198-1.814c0.116,0.006,0.377-0.473,0.37-0.72c-0.036-1.114-0.094-2.232-0.246-3.334
		c-0.079-0.572-0.371-1.115-0.625-1.836c0.167-0.438,0.438-1.15,0.722-1.899c0.498,0.808,0.962,1.562,1.474,2.392
		c-0.746,1.325-0.692,1.469,0.674,2.426c0.237,0.166,0.375,0.579,0.417,0.896c0.107,0.817,0.376,1.406,1.258,1.685
		c0.783,0.248,1.505,0.683,2.26,1.039c-0.201,0.424-0.379,0.8-0.483,1.019c-0.553,0.109-1.06,0.104-1.42,0.332
		c-0.142,0.089-0.029,0.727,0.107,1.059c0.088,0.215,0.405,0.402,0.656,0.473c0.909,0.254,1.063,0.835,0.927,1.285
		c-0.796,0.432-1.343,0.728-1.775,0.962c0.107,1.323,0.828,1.453,1.722,1.356c0.635-0.069,1.279-0.15,1.911-0.107
		c0.594,0.041,1.177,0.237,1.765,0.364c-0.026,0.108-0.052,0.216-0.078,0.324c-0.266,0.012-0.56-0.045-0.794,0.047
		c-0.816,0.325-1.589,0.778-2.424,1.032c-0.513,0.155-1.118-0.02-1.665,0.063c-0.26,0.04-0.516,0.311-0.697,0.539
		c-0.048,0.061,0.177,0.5,0.294,0.508c1.992,0.136,3.999,0.928,5.971-0.083c0.043-0.022,0.041-0.133,0.077-0.269
		c-0.262-0.111-0.529-0.225-0.796-0.338c-0.014-0.115-0.029-0.23-0.043-0.346c0.516-0.113,1.033-0.226,1.656-0.363
		c0.22-0.573,0.483-1.26,0.781-2.036c-0.504,0.063-0.83,0.104-1.157,0.145c-0.174-1.774,0.585-2.638,2.97-3.664
		c-0.62-0.192-1.24-0.384-2.155-0.668c0.938-0.529,1.77-0.998,3.017-1.701c-0.736-0.278-1.172-0.515-1.636-0.599
		c-0.593-0.107-0.89-0.825-0.442-1.378c0.294-0.364,0.755-0.589,1.087-0.929c0.382-0.393,0.705-0.844,1.124-1.357
		c-0.645-0.229-1.031-0.367-1.561-0.555c0.692-0.949,1.306-1.789,2.06-2.822c-0.48,0.025-0.689,0.035-0.899,0.046
		c-0.399,0.021-0.798,0.043-1.196,0.065c0.266-0.328,0.498-0.694,0.807-0.975c0.562-0.511,1.17-0.972,1.989-1.643
		c-0.704-0.154-1.032-0.226-1.36-0.298c-0.045-0.115-0.09-0.231-0.136-0.346c0.456-0.256,0.911-0.513,1.465-0.825
		c0.395-1.585,1.174-2.512,2.286-2.497c-0.041,0.644-0.496,1.521,0.703,1.567c-0.153,0.432-0.276,0.781-0.439,1.242
		c0.562,0,0.985,0,1.408,0c-0.076,0.082-0.152,0.164-0.229,0.245c0.557,0.828,1.114,1.657,1.678,2.496
		c-0.469,0.036-0.952,0.074-1.667,0.129c0.37,0.19,0.508,0.254,0.639,0.33c0.118,0.068,0.229,0.147,0.39,0.252
		c-0.478,0.054-0.861,0.097-1.245,0.139c-0.025,0.146-0.051,0.292-0.077,0.438c1.297-0.12,1.992,0.449,2.256,1.627
		c0.053,0.238,0.46,0.398,0.707,0.591c0.287,0.224,0.576,0.445,0.961,0.742c-0.583,0.088-0.959,0.145-1.35,0.203
		c0.377,1.378,0.771,1.882,1.754,2.838c0.343,0.333,0.434,0.926,0.708,1.558c-2.264-0.634-4.183-1.171-6.203-1.737
		c0.474,0.514,0.918,0.995,1.17,1.269c0.989,0.229,1.845,0.312,2.601,0.633c0.833,0.353,1.582,0.911,2.346,1.411
		c0.13,0.085,0.155,0.331,0.091,0.181c-0.453,0.844-0.771,1.438-1.101,2.052c-0.317-0.128-0.74-0.3-1.163-0.472
		c-0.107,0.092-0.214,0.185-0.321,0.276c0.644,0.885,1.287,1.77,2.14,2.944c-0.64-0.304-0.95-0.451-1.508-0.715
		c0.595,1.115,1.43,1.306,2.274,1.532c0.429,0.115,1.074,0.299,1.177,0.602c0.343,1.014,0.595,2.12-0.622,2.894
		c-0.689-0.414-1.395-0.837-2.101-1.26c-0.053,0.074-0.106,0.147-0.159,0.221c0.465,0.777,0.93,1.554,1.315,2.197
		c-1.153,0-2.162,0-3.17,0c-0.047,0.167-0.095,0.333-0.143,0.499c0.391,0.171,0.774,0.365,1.175,0.509
		c0.629,0.226,1.613,0.238,1.836,0.662c0.51,0.968,1.275,0.851,2.059,0.948c0.389,0.048,0.77,0.22,1.156,0.225
		c0.771,0.01,1.543-0.057,2.314-0.091c0.008-0.145,0.017-0.29,0.024-0.435c-0.782-0.451-1.625-0.821-2.329-1.372
		c-0.777-0.608-1.047-1.449-0.505-2.418c0.987,0.685,1.926,1.338,3.115,2.164c0.082-1.53-0.71-2.052-1.569-2.42
		c-0.864-0.37-1.405-0.754-0.935-1.458c1.01-0.08,1.781-0.105,2.538-0.22c0.265-0.041,0.497-0.302,0.744-0.463
		c-0.228-0.235-0.417-0.611-0.688-0.683c-1.789-0.472-2.193-2.125-3.248-3.464c1.205,0.097,2.179,0.176,3.154,0.255
		c0.152-0.067,0.303-0.135,0.455-0.203c-1.736-1.101-0.328-2.452-0.592-3.811c-0.381,0.269-0.594,0.418-0.696,0.491
		c-0.779-0.559-1.472-1.056-2.165-1.553c0.024-0.112,0.048-0.225,0.073-0.337c0.862,0.045,1.656,0.039,0.953-1.035
		c0.357-0.047,0.688-0.091,1.167-0.154c-0.511-0.737-0.99-1.315-1.325-1.968c-0.126-0.246-0.017-0.729,0.158-0.985
		c0.243-0.357,0.649-0.605,1.158-1.05c0.537,0.118,1.348,0.297,2.388,0.525c-0.098-0.646,0.015-1.384-0.295-1.684
		c-1.128-1.086-1.655-2.165-0.553-3.617c0.184,0.526,0.368,1.052,0.552,1.578c0.547-0.204,1.094-0.408,1.67-0.623
		c-1.106-2.042-1.037-3.429,0.119-4.255c0.162,0.358,0.224,0.856,0.494,1.029c1.241,0.794,0.749,1.518-0.217,2.418
		c1.867,0.123,1.442,1.334,1.391,2.384c-0.011,0.229-0.025,0.505,0.085,0.682c0.297,0.473,0.661,0.903,1.062,1.434
		c1.543-0.103,1.543-0.103,2.377,1.024c-0.35,0.155-0.688,0.306-1.053,0.468c0.362,1.499,0.518,2.984-0.471,4.184
		c-0.597,0.724-0.092,1.908-1.149,2.34c0.154,0.289,0.247,0.651,0.479,0.843c0.205,0.169,0.566,0.147,0.904,0.22
		c-0.125,0.417-0.224,0.753-0.237,0.797c0.303,0.687,0.5,1.133,0.697,1.583c0.248-0.017,0.659-0.043,1.055-0.07
		c0.329,1.768-1.563,1.678-2.111,2.772c0.544,0.291,1.037,0.553,1.574,0.839c-0.278,0.436-0.488,0.763-0.891,1.394
		c1.09,0,1.952,0,3.107,0c-0.672,1.655-1.246,3.229,1.189,4.111c-0.929,0.931-1.669,1.672-2.581,2.586
		c1.923-0.33,3.555-0.931,5.134-1.713c0.08,0.072,0.159,0.144,0.239,0.215c-1.069,1.162-2.139,2.322-3.233,3.511
		c1.16,0.623,2.126-0.093,3.114-0.646c0.064,0.091,0.129,0.182,0.193,0.273c-1.025,1.225-2.05,2.45-3.075,3.675
		c0.087,0.155,0.173,0.311,0.26,0.465c0.946-0.282,1.952-0.447,2.818-0.887c0.639-0.324,1.097-1.007,1.684-1.578
		c0.321,0.158,0.833,0.41,1.396,0.687c0-0.698,0-1.231,0-1.752c-0.582-0.36-1.214-0.75-1.846-1.141
		c0.006-0.111,0.013-0.222,0.019-0.333c0.557-0.062,1.118-0.101,1.669-0.195c0.305-0.052,0.854-0.214,0.849-0.292
		c-0.029-0.393-0.109-0.856-0.351-1.144c-0.655-0.781-1.4-1.486-2.017-2.125c0.515-0.565,0.907-0.995,1.221-1.339
		c0.388,0.115,0.735,0.217,0.854,0.252c0.165-0.798,0.297-1.437,0.43-2.075c0.133,0.012,0.266,0.024,0.398,0.036
		c0.043,0.613,0.041,1.235,0.149,1.836c0.055,0.307,0.31,0.578,0.474,0.865c0.204-0.211,0.39-0.443,0.615-0.628
		c0.305-0.25,0.64-0.465,0.962-0.695c0.121,0.094,0.242,0.188,0.364,0.282c-0.508,1-1.016,2-1.546,3.044
		c0.273,0.018,0.527,0.034,0.778,0.05c0,0.313,0,0.619,0,0.925c0.162,0.029,0.28,0.078,0.394,0.067
		c1.021-0.094,1.226,0.115,0.637,1.098c-0.397,0.663-0.395,1.566-0.571,2.363c0.118,0.059,0.235,0.118,0.352,0.177
		c0.264-0.239,0.506-0.511,0.798-0.708c0.202-0.136,0.473-0.17,0.713-0.25c-0.008,0.276,0.049,0.577-0.04,0.825
		c-0.153,0.43-0.397,0.828-0.603,1.239c-0.512,0.315-0.944,0.746-1.335,1.211c-0.417,0.493-0.69,0.944-0.051,1.57
		c0.62,0.606,0.65,1.283-0.572,1.602c0.316,0.19,0.52,0.312,0.636,0.383c-0.259,0.288-0.532,0.474-0.597,0.715
		c-0.032,0.117,0.348,0.507,0.505,0.487c1.279-0.16,2.633-0.124,3.729-1.097c-0.197-0.393-0.369-0.735-0.561-1.117
		c0.5,0.073,0.926,0.136,1.406,0.207c-0.581-2.918-0.581-2.918-1.878-4.244c0.399-0.05,0.823-0.103,1.215-0.151
		c-0.265-0.48-0.454-0.823-0.642-1.167c0.296-0.148,0.595-0.295,0.89-0.447c0.137-0.07,0.315-0.118,0.396-0.232
		c0.472-0.668,0.926-1.349,1.374-2.034c1.127-1.727,1.089-2.247,0.102-3.174c0.031-0.814,0.099-1.303,0.057-1.783
		c-0.053-0.61-0.193-1.213-0.297-1.825c0.351-0.157,0.681-0.304,1.182-0.528c-0.982-0.625-1.808-1.151-2.914-1.854
		c1.341-0.15,2.285-0.256,3.402-0.381c-0.683-0.397-1.014-0.59-1.344-0.782c0.187-0.079,0.373-0.157,0.56-0.236
		c0.654-0.406,1.308-0.811,1.962-1.217c-0.015-0.139-0.03-0.279-0.045-0.418c-1.021-0.346-2.041-0.691-3.364-1.139
		c0.675-0.498,1.142-0.843,1.568-1.157c-0.337-0.314-0.558-0.521-0.636-0.594c0.896-0.429,1.723-0.825,2.582-1.237
		c-0.424-0.379-0.69-0.615-0.947-0.845c-0.116,0.219-0.252,0.473-0.388,0.727c-0.107,0.012-0.213,0.023-0.32,0.035
		c-0.234-0.707-0.469-1.414-0.711-2.146c1.646-0.26,1.341-1.739,1.976-2.622c-0.721,0.007-1.321,0.18-1.932,0.241
		c-0.964,0.095-1.26-0.366-0.985-1.226c0.803-0.134,1.544-0.217,2.259-0.401c0.227-0.059,0.515-0.374,0.536-0.594
		c0.022-0.225-0.198-0.609-0.405-0.691c-0.422-0.167-0.913-0.149-1.364-0.258c-0.631-0.152-1.328-0.229-1.852-0.566
		c-0.466-0.299-0.734-0.906-1.128-1.429c0.248,0,0.561-0.097,0.69,0.016c0.867,0.757,1.583,0.465,2.321-0.206
		c0.16-0.145,0.501-0.196,0.727-0.146c1.45,0.329,1.876,0.046,2.113-1.648c-0.464,0.433-0.817,0.762-1.204,1.121
		c-0.838-0.793-1.632-1.545-2.426-2.297c0.062-0.069,0.125-0.139,0.187-0.208c0.662,0.224,1.324,0.449,1.934,0.656
		c0.187-1.641-2.194-1.868-1.886-3.828c0.381,0.429,0.602,0.677,0.882,0.994c0.214-0.46,0.373-0.801,0.498-1.069
		c-0.515-0.892-1.6,0.786-1.944-0.6c0.338-0.043,0.662-0.085,1.065-0.137c-0.228-0.329-0.383-0.554-0.679-0.982
		c0.701,0.305,1.151,0.5,1.756,0.762c0.246-1.523,0.467-2.892,0.685-4.248c0.279,0.103,0.769,0.284,1.382,0.51
		c-0.276-0.571-0.461-0.952-0.646-1.333c0.504,0.107,0.803,0.404,1.16,0.525c1.213,0.41,1.524,1.418,0.758,2.422
		c-0.292,0.383-0.436,0.879-0.647,1.324c0.115,0.089,0.23,0.177,0.345,0.266c0.939-0.549,1.877-1.099,2.84-1.663
		c0.035,0.367,0.074,0.791,0.114,1.214c0.096-0.046,0.191-0.093,0.287-0.139c0.293,0.458,0.84,0.924,0.824,1.372
		c-0.03,0.852-0.197,1.815-0.654,2.502c-0.417,0.625-1.292,0.945-1.748,1.253c-0.1,0.797-0.168,1.344-0.202,1.611
		c0.475,0.557,1.002,0.903,1.104,1.347c0.308,1.343,1.057,1.121,1.931,0.705c0.229-0.108,0.447-0.239,0.595-0.318
		c1.043,2.422-0.971,2.83-2.311,3.688c0.014,0.107,0.028,0.214,0.042,0.322c0.721-0.097,1.441-0.194,2.303-0.31
		c1.274,1.929-0.775,2.355-1.789,3.112c0.436,0.345,1.137,0.653,1.125,0.929c-0.087,1.9,0.481,1.334,1.26,0.41
		c0.142-0.169,0.421-0.218,0.625-0.341c0.825-0.496,1.71-0.92,2.451-1.523c0.73-0.594,1.312-1.371,1.959-2.068
		c-0.088-0.1-0.176-0.199-0.264-0.299c-0.473,0.155-0.945,0.31-1.466,0.481c-0.222-0.272-0.439-0.538-0.846-1.037
		c1.76-0.651,3.418-1.264,5.077-1.876c0.016-0.082,0.032-0.164,0.047-0.246c-0.705-0.085-1.41-0.17-2.274-0.274
		c0.01-0.011-0.128,0.144-0.289,0.323c-0.083-0.393-0.145-0.682-0.206-0.971c-0.089-0.021-0.178-0.042-0.267-0.062
		c-0.194,0.408-0.389,0.816-0.562,1.18c-0.523-0.115-1.163-0.474-1.52-0.289c-0.761,0.396-1.103,0.01-1.62-0.479
		c1.215-1.157,2.807-0.908,4.174-1.118c1.421-0.218,2.926,0.111,4.577,0.211c-0.686-0.911-1.357-1.803-2.036-2.704
		c-0.31,0.289-0.682,0.634-1.074,0.998c-0.119-0.302-0.222-0.563-0.363-0.922c-0.863,0.587-1.682,1.133-2.562,0.207
		c-0.259,0.369-0.46,0.655-0.692,0.986c-0.442-0.386-0.724-0.632-1.079-0.942c0.504-0.377,0.906-0.678,1.345-1.007
		c-0.261-0.308-0.492-0.581-0.774-0.914c0.325-0.14,0.531-0.273,0.755-0.32c2.442-0.515,4.792-0.021,7.104,0.719
		c0.64,0.205,1.156,0.331,1.531-0.508c-2.19-0.085-1.527-1.724-1.602-2.923c-0.816-0.224-1.584-0.434-2.225-0.609
		c0.05-0.541,0.09-0.964,0.129-1.386c-0.347,0.164-0.693,0.329-1.04,0.493c0.075-0.088,0.15-0.175,0.225-0.263
		c-0.454-0.465-0.888-0.951-1.368-1.388c-0.332-0.303-0.727-0.538-1.093-0.803c1.375-0.076,2.537,0.131,3.707,0.265
		c1.097,0.125,2.204,0.173,3.112,0.241c-0.16-0.608-0.305-1.159-0.446-1.694c-0.264,0.208-0.562,0.442-1.182,0.931
		c0.307-1.317,0.536-2.296,0.765-3.275c-0.071-0.037-0.142-0.074-0.213-0.111c-0.202,0.172-0.403,0.345-0.604,0.518
		c-0.112-0.026-0.224-0.051-0.336-0.077c0-1.13,0-2.261,0-3.688c1.34,1.153,2.22,0.252,2.847-0.314
		c0.511-0.461,0.854-1.477-0.016-2.236c-0.075-0.065,0.078-0.525,0.237-0.698c0.313-0.339,0.707-0.605,1.158-0.976
		c-0.5-0.165-0.921-0.303-1.611-0.53c1.653-0.646,0.332-1.23,0.225-1.665c1.066-0.347,2.059-0.67,3.046-0.992
		c0.111,0.662,0.212,1.258,0.33,1.955c0.906,0.127,1.764,0.249,2.622,0.37c0.018,0.082,0.036,0.164,0.054,0.245
		c-0.366,0.166-0.731,0.331-1.097,0.497c0.13,0.005,0.259,0.011,0.389,0.017c0.058,0.405,0.238,0.845,0.136,1.204
		c-0.083,0.293-0.504,0.489-0.942,0.875c0.154,0.031-0.039-0.008-0.277-0.057c0.131,0.527,0.232,0.936,0.396,1.596
		c1.206-0.689,2.29-1.308,3.374-1.927c0.116,0.151,0.231,0.302,0.347,0.453c-0.385,0.437-0.696,1.098-1.172,1.254
		c-0.659,0.217-0.712,0.054-0.951,0.497c0.515,0.22,1.036,0.443,1.384,0.591c-0.409,0.648-0.698,1.091-0.969,1.544
		c-0.156,0.26-0.276,0.753-0.425,0.759c-0.296,0.01-0.614-0.225-0.9-0.396c-0.294-0.177-0.56-0.399-0.838-0.602
		c-0.144,0.086-0.288,0.172-0.431,0.259c1.669,0.337,0.224,0.958,0.368,1.499c0.081,0.303-0.675,0.829-0.91,1.092
		c0.702,0.464,1.409,0.94,2.127,1.399c0.194,0.125,0.455,0.316,0.631,0.27c1.164-0.307,2.312-0.669,3.334-0.974
		c0.87,1.306-0.049,1.624-1.012,1.742c0.999,1.297,2.868,1.775,3.082,3.778c-0.558-0.094-1.197-0.363-1.339-0.2
		c-0.932,1.075-1.79,0.651-2.686-0.088c-0.086,0.293-0.083,0.588-0.206,0.655c-0.991,0.543-0.708,0.793,0.162,1.096
		c0.483,0.168,0.887,0.562,1.513,0.977c-0.596,0.245-1,0.411-1.374,0.565c-0.442-0.472-0.812-0.868-0.974-1.04
		c-1.034,0.442-1.854,0.793-2.675,1.145c0.027,0.175,0.055,0.351,0.083,0.526c0.816,0,1.633,0.009,2.449-0.006
		c0.232-0.004,0.577-0.198,0.677-0.103c1.082,1.028,1.991,0.055,3-0.207c0.519,1.365,2.581-0.1,3.092,1.801
		c-0.748,0.076-1.401,0.139-2.055,0.209c-0.303,0.033-0.604,0.079-0.905,0.119c0.123,0.288,0.247,0.576,0.369,0.865
		c0.099,0.233,0.195,0.468,0.293,0.702c-0.242,0.099-0.486,0.285-0.726,0.278c-0.604-0.017-1.205-0.121-1.753-0.185
		c-0.178,0.403-0.339,0.767-0.618,1.397c0.89-0.143,1.619-0.324,2.355-0.362c0.853-0.043,1.729-0.047,2.558,0.12
		c0.249,0.05,0.455,0.715,0.526,1.125c0.059,0.343-0.108,0.725-0.229,1.374c-0.582,0.106-1.442,0.262-2.303,0.419
		c0.02,0.095,0.038,0.19,0.058,0.285c0.293,0.148,0.585,0.296,0.878,0.445c0.019,0.137,0.037,0.273,0.056,0.41
		c-0.697,0.194-1.396,0.389-1.841,0.513c0,0.579-0.026,1.104,0.009,1.625c0.021,0.313,0.039,0.785,0.229,0.9
		c0.561,0.337,1.228,0.494,1.817,0.792c0.914,0.46,1.805,0.969,2.694,1.476c0.41,0.232,0.796,0.507,1.192,0.763
		c-0.273,0.349-0.547,0.698-0.747,0.954c-0.585-0.283-1.019-0.492-1.452-0.702c0.129,0.526,0.481,0.835,0.601,1.218
		c0.069,0.219-0.247,0.805-0.378,0.801c-1.192-0.031-2.382-0.156-3.772-0.27c0.14,0.316,0.201,0.84,0.475,1
		c0.822,0.48,1.711,1.084,2.605,1.14c0.981,0.061,1.998-0.434,2.999-0.687c-0.232-0.535-0.465-1.07-0.695-1.605
		c-0.03-0.069-0.051-0.143-0.074-0.208c0.384-1.236,1.364-0.205,2.014-0.574c-0.066-0.465-0.138-0.969-0.192-1.355
		c0.468-0.043,0.895-0.083,1.604-0.148c-1.527-0.92-2.413-2.828-2.113-4.451c0.789,0.778,1.462,1.442,2.134,2.105
		c0.127-0.059,0.253-0.118,0.379-0.177c0.164-1.2,0.327-2.399,0.497-3.642c1.067,0.753,1.269,1.632,0.445,2.893
		c0.574-0.087,1.092-0.036,1.173-0.2c0.416-0.842,0.581-0.387,0.886,0.066c0.307,0.459,0.714,0.85,1.224,1.439
		c-0.688,0.755-1.415,1.775-2.359,2.522c-0.798,0.631-1.014,1.242-0.699,2.191c0.593,0.05,1.227,0.031,1.818,0.177
		c0.484,0.12,1.341-0.864,1.455,0.628c-0.861,0.435-1.788,0.902-2.732,1.378c0.093,0.121,0.33,0.432,0.359,0.469
		c-0.095,0.746-0.154,1.216-0.253,1.989c0.958-0.481,1.675-0.84,2.425-1.217c0.492,0.798,0.242,1.379-0.3,2.047
		c-0.49,0.604-1.223,1.236-0.842,2.298c0.705-0.364,1.299-0.671,2.056-1.062c0.22,0.595,0.408,1.105,0.609,1.65
		c-1.86,0.306-2.684,1.457-1.812,2.794c0.135-0.343,0.244-0.621,0.462-1.176c0.224,0.833,0.334,1.244,0.415,1.544
		c-0.37,0.337-0.656,0.598-0.943,0.859c0.099,0.135,0.197,0.271,0.295,0.406c0.629-0.38,1.257-0.76,2.084-1.26
		c1.104,0.484,1.549-1.356,2.846-1.47c-0.146,0.746-0.282,1.438-0.428,2.179c0.786,0.174,1.671,0.555,2.531,0.506
		c0.777-0.043,1.834,0.045,2.252-0.85c-1.104-0.653-2.082-1.21-3.037-1.804c-1.728-1.076-0.62-3.232-1.83-4.536
		c2.444,0.703,4.778,1.18,7.548,0.308c-1.794-1.259-4.338-1.53-3.562-4.494c0.352,0.203,0.584,0.31,0.786,0.458
		c0.697,0.51,1.371,1.052,2.084,1.538c0.146,0.099,0.458,0.068,0.625-0.025c0.103-0.058,0.167-0.439,0.088-0.52
		c-0.561-0.578-1.075-1.329-1.773-1.616c-1.012-0.417-1.316-0.788-0.973-1.625c1.062-0.092,1.981-0.137,2.887-0.274
		c0.248-0.038,0.454-0.355,0.68-0.545c-0.232-0.236-0.433-0.627-0.702-0.683c-2.041-0.424-2.4-2.33-3.756-3.803
		c1.48,0.101,2.56,0.174,3.638,0.247c0.093-0.077,0.186-0.154,0.278-0.231c-1.576-1.226-0.306-2.688-0.423-4.221
		c-0.486,0.333-0.753,0.514-1.086,0.743c-0.065-0.448-0.113-0.778-0.17-1.167c-0.271,0.191-0.457,0.322-0.682,0.479
		c-0.428-0.465-0.829-0.903-1.307-1.422c0.606-0.145,1.044-0.147,1.315-0.361c0.114-0.09-0.12-0.625-0.189-0.932
		c0.378-0.032,0.784-0.067,1.269-0.109c-0.66-1.091-1.231-2.033-1.895-3.129c0.683-0.151,1.013-0.224,1.363-0.301
		c0.025-0.389,0.047-0.722,0.074-1.137c1.051,0.224,2.003,0.426,2.955,0.628c0.109-0.087,0.218-0.173,0.327-0.26
		c-0.25-0.63-0.354-1.393-0.777-1.868c-1.567-1.759-1.534-2.162,0.545-3.167c0.063-0.031,0.102-0.117,0.151-0.178
		c-0.104-0.039-0.207-0.078-0.311-0.117c0.49-1.307,0.979-2.614,1.47-3.921c0.138,0.033,0.276,0.066,0.414,0.1
		c0.181,1.222,2.617,2.009,0.324,3.755c1.667,0.191,1.855,1.226,1.56,2.31c-0.261,0.957,0.124,1.333,0.903,1.576
		c0,0.401,0,0.769,0,1.144c1.985-0.137,1.985-0.137,2.965,1.099c-0.366,0.161-0.716,0.315-1.061,0.466
		c-0.008,3.666-0.021,3.658-1.843,7.13c-0.113,0.215,0.188,0.785,0.45,1.017c0.224,0.197,0.667,0.146,1.07,0.213
		c-0.159,0.448-0.3,0.847-0.457,1.289c0.322,0.226,0.608,0.427,0.889,0.624c-0.104,0.288-0.201,0.554-0.296,0.814
		c0.554-0.047,1.032-0.088,1.485-0.127c0.304,1.933-1.729,1.862-2.381,3.07c0.625,0.304,1.178,0.573,1.796,0.873
		c-0.295,0.448-0.553,0.839-0.802,1.217c0.771,1.339,1.912,0.128,2.779,0.398c0.783,1.136-1.224,2.313,0.224,3.075
		c1.143,0.262,2.286,0.524,3.766,0.864c-1.224-1.291-3.312-1.554-2.631-3.785c0.392,0.089,0.783,0.136,1.144,0.269
		c1.01,0.373,1.981,0.905,3.021,1.125c0.556,0.118,1.22-0.277,1.834-0.441c-0.237-0.526-0.467-1.056-0.718-1.576
		c-0.061-0.125-0.191-0.217-0.234-0.263c0.877-0.485,1.717-0.949,2.717-1.501c-1.235-0.614-2.331-0.184-3.31-0.905
		c-0.857-0.631-1.525-1.283-2.277-2.379c1.264,0.135,2.197,0.253,3.134,0.329c0.941,0.076,1.988,0.53,2.75-0.732
		c-0.518-0.419-1.01-0.818-1.502-1.217c0.001-0.028,0.001-0.056,0.002-0.084c-0.711-0.397-1.421-0.794-2.411-1.348
		c0.858-0.208,1.409-0.291,1.916-0.488c0.249-0.097,0.517-0.379,0.582-0.628c0.04-0.152-0.262-0.432-0.457-0.6
		c-0.41-0.352-0.851-0.667-1.296-1.011c0.402-0.407,0.839-0.794,0.812-0.83c-0.623-0.821,0.186-0.674,0.539-0.865
		c0.512-0.277,0.996-0.604,1.492-0.91c-0.279-0.25-0.562-0.496-0.834-0.754c-0.05-0.047-0.063-0.145-0.07-0.221
		c-0.091-0.937-0.784-0.879-1.429-0.839c-0.453,0.028-0.899,0.139-1.349,0.212c-0.056-0.1-0.11-0.2-0.165-0.3
		c0.413-0.294,0.829-0.842,1.238-0.836c1.448,0.02,1.805-1.087,2.466-2.021c-0.336-0.225-0.612-0.41-0.829-0.556
		c0.329-0.856,0.627-1.629,0.928-2.41c0.567,0.892,1.087,1.708,1.664,2.617c0.01-0.015-0.084,0.109-0.165,0.24
		c-0.693,1.118-0.52,1.756,0.699,2.239c0.714,0.283,1.497,0.39,2.21,0.672c0.401,0.159,0.76,0.48,1.062,0.799
		c0.099,0.104,0.005,0.607-0.074,0.626c-0.364,0.089-0.761,0.124-1.132,0.076c-0.373-0.048-0.73-0.215-1.096-0.33
		c0.715,1.477,2.397,1.416,3.438,2.262c-0.224,0.472-0.414,0.874-0.462,0.974c-0.746,0.213-1.237,0.353-1.729,0.494
		c0.268,0.523,0.526,1.052,0.812,1.565c0.046,0.082,0.212,0.099,0.325,0.139c0.939,0.335,1.008,0.97,0.696,1.738
		c-0.087-0.085-0.175-0.169-0.263-0.254c-0.518,0.288-1.034,0.575-1.544,0.858c0.093,1.176,0.651,1.577,1.752,1.514
		c1.184-0.068,2.379,0.01,3.564,0.087c0.89,0.058,0.955,0.047,1.196-1.11c-0.495,0.204-0.902,0.371-1.309,0.538
		c-0.106-0.074-0.213-0.148-0.319-0.222c0.21-0.319,0.367-0.696,0.641-0.944c0.533-0.485,1.133-0.899,1.872-1.472
		c-0.617-0.208-0.924-0.312-1.273-0.43c0.095-0.241,0.133-0.498,0.21-0.51c0.845-0.138,1.135-0.613,1.396-1.44
		c0.159-0.505,0.633-1.478,1.476-1.342c0.267,0.659,0.472,1.165,0.769,1.896c-0.004,0.008-0.111,0.319-0.25,0.716
		c0.513,0,0.905,0,1.297,0c-0.075,0.076-0.151,0.153-0.227,0.229c0.493,0.741,0.986,1.481,1.516,2.277
		c-0.36,0.028-0.735,0.057-1.11,0.085c-0.045,0.063-0.09,0.126-0.135,0.19c0.213,0.077,0.425,0.153,0.638,0.23
		c-0.045,0.057-0.089,0.114-0.133,0.171c-0.31,0-0.619,0-1.095,0c0.718,0.517,1.34,0.869,1.84,1.349
		c0.571,0.549,1.034,1.211,1.527,1.805c-0.31,0.074-0.637,0.151-0.887,0.211c-0.066,1.285,0.388,2.098,1.521,2.591
		c0.312,0.136,0.395,0.799,0.657,1.388c-2.059-0.576-3.809-1.065-5.836-1.632c0.695,0.553,1.306,1.41,1.756,1.333
		c1.964-0.337,2.6,1.732,4.151,1.836c-0.439,0.729-0.78,1.298-1.133,1.884c-0.296-0.107-0.673-0.243-1.05-0.38
		c-0.077,0.096-0.156,0.191-0.234,0.287c0.567,0.775,1.134,1.55,1.89,2.584c-0.584-0.267-0.843-0.384-1.101-0.502
		c-0.057,0.115-0.114,0.23-0.171,0.346c0.602,0.294,1.214,0.568,1.801,0.89c0.48,0.263,1.183,0.488,1.339,0.899
		c0.306,0.806,0.316,1.736-0.659,2.308c-0.621-0.38-1.233-0.754-1.845-1.128c-0.058,0.071-0.114,0.141-0.171,0.212
		c0.426,0.714,0.852,1.429,1.185,1.987c-1.036,0-1.984,0-2.932,0c-0.029,0.159-0.059,0.318-0.087,0.477
		c0.358,0.139,0.712,0.294,1.077,0.414c0.527,0.172,1.369,0.163,1.54,0.501c0.592,1.176,1.618,0.792,2.513,1.007
		c1.156,0.278,1.42-0.558,2.006-1.207c-0.556-0.039-0.98-0.069-1.405-0.099c0.325-0.537,0.642-0.896,1.029-1.008
		c1.265-0.365,0.83-0.788,0.102-1.271c-0.574,0.656-1.648,0.688-2.517-0.25c2.027-0.142,3.791-0.265,5.706-0.398
		c-0.492-0.426-0.924-1.018-1.495-1.225c-0.451-0.165-1.07,0.182-1.621,0.229c-0.572,0.049-1.151,0.011-1.683,0.011
		c0.225-0.654,0.382-1.11,0.538-1.565c-0.03-0.131-0.061-0.263-0.092-0.394c1.869,0.209,3.737,0.418,5.515,0.617
		c-0.745-1.223-1.459-2.341-2.411-3.324c-0.017,0.01-0.172,0.104-0.186,0.113c-0.549-0.523-1.033-0.984-1.599-1.522
		c1.5,0.137,2.836,0.259,4.171,0.382c0.051-0.09,0.103-0.179,0.154-0.269c-0.284-0.231-0.567-0.462-0.957-0.78
		c0.184-0.446,0.474-1-0.218-1.701c-0.657-0.668-0.218-1.366,0.707-1.602c0.726-0.185,1.24-0.607,1.228-1.496
		c-0.008-0.512,0.174-1.027,0.265-1.509c-0.126-0.43-0.275-0.94-0.339-1.158c0.539-0.591,0.916-1.004,1.308-1.434
		c0.755,0.459,0.307,2.595,2.411,1.872c-0.423,1.019-0.76,1.828-1.096,2.637c0.081,0.072,0.162,0.144,0.242,0.216
		c0.668-0.358,1.336-0.715,2.004-1.073c0.076,0.115,0.152,0.23,0.229,0.345c-0.394,0.296-0.786,0.592-1.186,0.893
		c0.27,0.175,0.552,0.358,0.946,0.614c-1.004,0.888-1.939,1.715-2.884,2.552c1.074,0.429,1.948,1.182,3.122,0.733
		c0.28-0.107,0.668,0.069,1.007,0.115c-0.212,0.258-0.425,0.515-0.611,0.742c0.598,0.627,1.253,1.314,2.036,2.136
		c-1.328,0.216-2.321,0.378-3.314,0.541c0.021,0.113,0.043,0.227,0.065,0.34c0.411,0.262,0.823,0.523,1.337,0.849
		C260.404,228.989,260.127,229.129,259.85,229.27z M164.668,305.444c0.097-4.087-3.092-7.32-7.316-7.418
		c-3.812-0.089-7.133,3.034-7.244,6.812c-0.123,4.185,3.016,7.675,6.986,7.771C161.229,312.708,164.57,309.547,164.668,305.444z
		 M200.84,305.478c0.067-4.188-3.143-7.422-7.396-7.453c-3.847-0.027-7.068,3.09-7.133,6.903c-0.072,4.223,3.047,7.621,7.051,7.681
		C197.44,312.67,200.774,309.489,200.84,305.478z M146.768,312.241c0-4.547,0.012-8.856-0.03-13.165
		c-0.002-0.243-0.417-0.658-0.683-0.695c-2.756-0.389-2.853-0.266-2.875,2.486c-0.026,3.172,0.144,2.612-2.734,2.672
		c-0.04,0.001-0.081-0.005-0.12,0c-0.868,0.11-1.109-0.329-1.078-1.125c0.042-1.077,0.057-2.161-0.025-3.234
		c-0.024-0.315-0.383-0.82-0.647-0.862c-0.741-0.117-1.519-0.091-2.268-0.002c-0.233,0.027-0.598,0.432-0.604,0.672
		c-0.117,4.112-0.199,8.227-0.239,12.34c-0.003,0.273,0.373,0.768,0.605,0.788c0.979,0.09,1.97,0.038,3.099,0.038
		c0-1.589-0.042-3.101,0.033-4.606c0.017-0.333,0.416-0.895,0.687-0.925c0.979-0.113,1.979-0.045,3.055-0.045
		c0.062,0.727,0.154,1.316,0.152,1.906c-0.003,0.956-0.13,1.916-0.071,2.865c0.02,0.311,0.43,0.817,0.708,0.852
		C144.629,312.31,145.549,312.241,146.768,312.241z M211.499,307.559c0.396-0.235,0.671-0.385,0.932-0.555
		c1.609-1.045,2.494-2.497,2.212-4.441c-0.299-2.055-1.543-3.606-3.539-3.9c-2.201-0.324-4.487-0.074-6.882-0.074
		c0,0.891,0.006,1.8-0.001,2.709c-0.022,3.194-0.056,6.389-0.067,9.583c-0.002,0.58-0.103,1.302,0.782,1.347
		c0.899,0.046,1.803,0.011,2.854,0.011c0-1.279,0-2.36,0-3.717c1.138,1.324,1.93,2.593,3.04,3.445
		c1.216,0.933,2.754,0.339,4.519,0.338C213.944,310.572,212.771,309.127,211.499,307.559z M109.144,298.361
		c0,1.571,0.005,2.965,0,4.358c-0.012,2.872-0.051,5.745-0.013,8.618c0.005,0.354,0.399,1.001,0.631,1.01
		c2.231,0.083,4.468,0.105,6.7,0.049c1.442-0.036,0.845-1.276,1.012-2.022c0.181-0.808-0.353-1.043-1.051-1.043
		c-1.143,0-2.286,0-3.428,0c-0.071-0.51-0.122-0.741-0.131-0.975c-0.064-1.522-0.043-1.541,1.465-1.546
		c0.599-0.002,1.22,0.093,1.79-0.038c0.339-0.077,0.817-0.479,0.856-0.783c0.287-2.281,0.258-2.285-2.077-2.285
		c-0.32,0-0.641-0.023-0.958,0.004c-0.723,0.063-1.133-0.132-1.085-0.977c0.047-0.817,0.194-1.418,1.219-1.262
		c0.392,0.06,0.797,0.067,1.195,0.05c2.006-0.086,2.181-0.254,1.988-2.264c-0.03-0.32-0.5-0.848-0.779-0.855
		C114.13,298.331,111.781,298.361,109.144,298.361z M222.138,301.45c1.083,0,2.111,0,3.14,0c0.694,0,1.062-0.234,1.124-1.038
		c0.156-2.028,0.168-2.057-1.901-2.066c-0.639-0.003-1.276-0.062-1.914-0.068c-1.377-0.011-2.754-0.003-4.316-0.003
		c0,4.652-0.012,8.999,0.028,13.344c0.003,0.261,0.411,0.736,0.643,0.744c2.193,0.067,4.389,0.082,6.582,0.035
		c0.334-0.007,0.893-0.366,0.942-0.637c0.133-0.722,0.046-1.483,0.046-2.338c-1.519-0.083-2.972-0.162-4.467-0.244
		c-0.032-0.354-0.066-0.586-0.073-0.817c-0.043-1.545-0.041-1.546,1.46-1.551c0.832-0.002,1.664,0,2.594,0
		c0.064-0.772,0.107-1.438,0.178-2.103c0.075-0.707-0.187-1.042-0.935-1.011c-0.838,0.035-1.686,0.07-2.513-0.032
		c-0.287-0.036-0.669-0.446-0.747-0.753C221.907,302.52,222.069,302.059,222.138,301.45z M131.121,308.404
		c-0.768,0.268-1.209,0.453-1.667,0.575c-1.765,0.468-3.317-0.022-4.157-1.292c-0.988-1.492-1-3.325-0.033-4.601
		c1.032-1.358,2.644-1.869,4.384-1.251c0.756,0.27,1.194,0.189,1.5-0.562c0.18-0.441,0.402-0.868,0.631-1.287
		c0.361-0.661,0.098-1.156-0.523-1.311c-1.07-0.264-2.179-0.555-3.266-0.533c-4.812,0.097-7.717,3.64-7.147,8.59
		c0.443,3.838,4.616,6.634,8.771,5.772c0.975-0.203,1.868-0.796,2.799-1.208C131.987,310.346,131.562,309.395,131.121,308.404z
		 M239.172,299.384c-1.958-1.242-3.958-1.448-6.022-0.736c-2.428,0.838-3.312,3.561-1.8,5.661c0.565,0.785,1.42,1.377,2.196,1.99
		c0.561,0.442,1.293,0.688,1.791,1.181c0.368,0.363,0.48,0.984,0.707,1.49c-0.456,0.162-0.947,0.521-1.362,0.448
		c-1.068-0.187-2.104-0.563-3.276-0.899c-0.433,0.739-0.909,1.554-1.435,2.45c1.976,1.441,4.061,2.018,6.367,1.469
		c1.718-0.41,2.939-1.48,3.315-3.257c0.394-1.86-0.386-3.256-1.953-4.272c-0.972-0.629-1.947-1.263-2.844-1.989
		c-0.27-0.219-0.44-0.796-0.356-1.134c0.062-0.246,0.598-0.458,0.953-0.525c0.331-0.062,0.768-0.017,1.044,0.159
		c1.203,0.766,1.718,0.049,2.156-0.914C238.802,300.179,238.954,299.854,239.172,299.384z M179.211,306.609
		c0.923,0,1.714,0.002,2.505,0c1.426-0.005,1.548-0.196,1.503-1.587c-0.032-1.01-0.371-1.495-1.428-1.322
		c-0.313,0.052-0.636,0.056-0.954,0.067c-1.563,0.058-1.72-0.097-1.66-1.638c0.009-0.231,0.055-0.46,0.09-0.743
		c0.758-0.062,1.465-0.152,2.173-0.168c1.875-0.044,1.849-0.03,1.825-1.911c-0.008-0.68-0.167-1.052-0.921-1.046
		c-2.221,0.018-4.443,0.006-6.725,0.006c-0.034,0.525-0.07,0.835-0.071,1.146c-0.004,3.508-0.014,7.017,0.001,10.525
		c0.01,2.509,0.025,2.482,2.587,2.406c0.825-0.024,1.12-0.308,1.089-1.139C179.171,309.736,179.211,308.263,179.211,306.609z
		 M245.15,312.251c0.969,0,1.835-0.026,2.699,0.008c0.752,0.03,0.941-0.321,0.934-1.016c-0.029-2.514-0.011-5.027-0.011-7.541
		c0-0.742,0-1.484,0-2.074c0.929-0.26,1.999-0.249,2.273-0.711c0.359-0.604,0.088-1.581,0.088-2.493c-2.176,0-4.087,0.001-5.997,0
		c-2.601,0-2.602,0-2.379,2.6c0.006,0.073,0.067,0.141,0.144,0.289c0.686,0.093,1.421,0.192,2.249,0.305
		C245.15,305.145,245.15,308.604,245.15,312.251z M191.734,241.18c0.488,1.125,0.805,1.853,1.121,2.582
		c-0.099,0.146-0.196,0.292-0.295,0.438c1.514,0.078,3.034,0.285,4.536,0.189c1.11-0.07,2.501,0.102,2.95-1.366
		c1.447-0.278,2.953,0.777,4.197-0.137c-0.603-0.765-1.084-1.377-1.425-1.81c-2.345-0.816-4.11-2.207-5.533-3.873
		c-1.374,0.248-1.16,1.083-1.182,1.68c-1.043,1.029-2.086,2.058-3.039,2.999C192.771,241.727,192.397,241.53,191.734,241.18z
		 M170.256,329.895c0.298,1.334,0.471,2.646,0.896,3.87c0.478,1.373,1.61,2.067,3.069,2.071c1.462,0.005,2.552-0.7,3.09-2.057
		c1.015-2.559,1.01-5.157-0.02-7.708c-0.525-1.299-1.569-1.981-2.997-2.004c-1.477-0.022-2.609,0.633-3.107,1.998
		C170.745,327.281,170.562,328.593,170.256,329.895z M224.561,329.642c0.28-0.858,0.021-1.156-0.745-1.155
		c-6.876,0.012-13.751,0.011-20.627,0.002c-0.865-0.001-1.047,0.366-0.717,1.153C209.826,329.642,217.169,329.642,224.561,329.642z
		 M134.599,329.631c7.272,0,14.525,0,21.795,0c0.291-0.814,0.068-1.146-0.773-1.146c-6.752,0.014-13.504,0.014-20.257,0.002
		C134.523,328.486,134.316,328.834,134.599,329.631z M192.405,324.509c-0.108-0.14-0.217-0.279-0.325-0.419
		c-0.408,0.302-0.942,0.521-1.203,0.92c-1.005,1.536-1.947,3.115-2.859,4.708c-0.353,0.615-0.665,1.289-0.821,1.976
		c-0.448,1.977,1,3.798,3.195,4.115c2.104,0.306,3.994-1.068,4.253-3.093c0.264-2.063-1.156-3.816-3.233-3.948
		c-0.507-0.032-1.022,0.056-1.678,0.097C190.667,327.343,191.536,325.926,192.405,324.509z M96.998,230.821
		c0.928-0.27,1.855-0.54,2.782-0.809c0.059,0.104,0.117,0.208,0.175,0.312c-0.826,0.773-1.664,1.534-2.47,2.327
		c-0.238,0.233-0.386,0.557-0.576,0.839c0.36,0.149,0.715,0.401,1.083,0.422c0.494,0.029,1.02-0.249,1.493-0.169
		c1.412,0.238,2.204-0.168,2.616-1.406c0.712-0.22,1.362-0.421,2.1-0.649c-0.835-0.827-0.8-1.519,0.088-1.79
		c1.161-0.354,0.77-0.863,0.544-1.324c-0.601,0.434-1.099,0.864-1.672,1.133c-0.091,0.042-0.523-0.641-0.964-1.2
		c-0.55,0.062-1.397,0.261-2.234,0.228C98.526,228.677,97.629,229.129,96.998,230.821z M162.753,326.606
		c0.768,0.407,1.062,0.018,1.404-0.588c0.573-1.014,1.992-1.324,3.054-0.78c0.962,0.493,1.391,1.545,0.894,2.66
		c-0.333,0.745-0.863,1.429-1.413,2.044c-1.197,1.338-2.494,2.589-3.683,3.934c-0.364,0.411-0.512,1.013-0.875,1.771
		c2.508,0,4.619,0.012,6.729-0.018c0.198-0.002,0.393-0.254,0.588-0.39c-0.181-0.162-0.339-0.407-0.548-0.466
		c-0.298-0.083-0.634-0.032-0.953-0.032c-1.329-0.002-2.657-0.001-4.315-0.001c1.614-1.686,2.995-3.057,4.285-4.509
		c0.544-0.613,1.025-1.349,1.307-2.112c0.405-1.101,0.301-2.224-0.641-3.09c-1.145-1.053-2.49-1.203-3.909-0.718
		C163.59,324.682,162.845,325.387,162.753,326.606z M226.711,276.321c0.659,0.108,1.21,0.172,1.749,0.291
		c3.581,0.8,7.04-0.479,10.565-0.64c1.583-0.072,1.777-0.63,1.241-2.124c-0.702,0.658-1.448,1.358-2.434,2.283
		c0.078-1.331,0.132-2.232,0.18-3.04c-1.185,0.357-2.173,0.656-3.167,0.956c0.105,0.193,0.236,0.431,0.4,0.729
		c-0.94,0.33-1.753,0.781-2.605,0.879c-1.582,0.183-3.085-0.232-4.445-1.101c-0.799-0.511-1.272-0.311-1.359,0.665
		C226.808,275.536,226.765,275.852,226.711,276.321z M280.685,247.625c-2.154-0.67-2.592-0.574-2.664,0.634
		c-0.524-0.106-1.037-0.209-1.55-0.312c-0.037,0.099-0.076,0.198-0.113,0.297c0.86,0.406,1.72,0.812,2.568,1.213
		c-0.505,0.491-0.878,0.855-1.287,1.253c-0.575,0.065-1.291,0.146-2.21,0.25c1.554,1.77,3.082,2.791,5.256,2.562
		C280.685,251.538,280.685,249.63,280.685,247.625z M88,237.587c0.11-0.977,0.2-1.777,0.29-2.578
		c-0.114-0.044-0.228-0.088-0.341-0.132c-0.163,0.403-0.326,0.806-0.519,1.284c-0.806,0.083-1.92,1.286-1.911,2.258
		c0.002,0.172,0.068,0.355,0.146,0.513c0.702,1.401,2.028,1.968,3.384,2.463c0.394,0.144,0.85,0.117,1.375,0.18
		c-0.132-0.64-0.217-1.053-0.329-1.598c0.731,0.047,1.352,0.087,1.972,0.127c0.055-0.15,0.109-0.3,0.164-0.449
		C90.78,238.946,89.328,238.236,88,237.587z M198.605,256.194c-0.489-1.215-0.901-2.235-1.312-3.257
		c0.103-0.07,0.205-0.14,0.308-0.209c0.84,0.456,1.681,0.911,2.521,1.366c0.045-0.083,0.09-0.166,0.136-0.25
		c-1.164-0.894-2.327-1.789-3.501-2.691c-0.248,0.158-0.549,0.315-0.811,0.521c-0.514,0.405-1.018,0.824-1.499,1.267
		c-0.139,0.128-0.185,0.357-0.273,0.541c-0.282,0.14-0.303,0.426-0.424,0.661c-0.087,0.171-0.462,0.321-0.438,0.396
		c0.075,0.242,0.236,0.555,0.44,0.628c0.172,0.062,0.489-0.125,0.674-0.281c0.307-0.26,0.56-0.584,0.849-0.896
		c0.543,1.005-0.633,2.153,0.389,2.82c0.57-0.256,0.958-0.511,1.38-0.596C197.492,256.124,197.975,256.194,198.605,256.194z
		 M276.625,245.262c0.844-0.303,1.475-0.509,2.089-0.755c0.658-0.263,1.302-0.564,1.923-0.835c0-1.658,0-3.301,0-4.981
		c-2.475,1.02-2.485,1.036-1.933,2.996c-1.17,0.606-2.339,1.212-3.507,1.818c0.056,0.112,0.112,0.224,0.169,0.336
		c0.486-0.026,0.973-0.053,1.54-0.084C276.818,244.228,276.755,244.565,276.625,245.262z M234.705,222.802
		c0.059,0.094,0.117,0.187,0.176,0.281c-0.787,0.838-1.51,1.755-2.391,2.48c-0.407,0.335-1.157,0.326-0.802,1.107
		c0.306,0.67,0.894,0.604,1.417,0.269c1.106-0.707,2.188-1.455,3.411-2.275c-0.522-0.157-1.089-0.327-1.952-0.586
		c0.938-0.508,1.694-0.917,2.842-1.539c-1.185-0.477-2.059-1.093-2.955-1.126c-1.278-0.047-2.325,0.694-2.823,2.264
		C232.653,223.385,233.679,223.094,234.705,222.802z M81.469,260.281c0.198-0.479,0.319-0.77,0.439-1.062
		c-0.845,0.021-0.33-0.809-0.693-1.104c-0.394-0.321-0.734-0.711-1.135-1.022c-0.485-0.377-1.009-0.703-1.516-1.052
		c0.056-0.091,0.113-0.183,0.169-0.273c0.787,0.095,1.575,0.189,2.417,0.289c-0.212-0.534-0.345-0.871-0.48-1.208
		c-0.236,0.035-0.472,0.07-0.81,0.12c0.173-0.731,0.315-1.33,0.407-1.719c-0.577,0.145-1.155,0.288-1.88,0.47
		c0,2.21-0.008,4.55,0.018,6.889c0.002,0.163,0.229,0.385,0.403,0.461c0.102,0.044,0.381-0.107,0.452-0.24
		c0.312-0.583,0.578-1.192,0.928-1.936C80.671,259.416,80.96,259.729,81.469,260.281z M199.456,246.399
		c-1.072,0.391-2.258,0.822-3.424,1.247c-0.282-0.476-0.466-0.786-0.65-1.096c-0.042,0.747,0.065,1.439,0.33,2.065
		c0.266,0.627,1.8,0.851,2.389,0.532c0.299-0.162,0.745-0.117,1.112-0.071c0.97,0.12,1.93,0.33,2.902,0.412
		c0.192,0.017,0.477-0.35,0.604-0.598c0.049-0.096-0.182-0.412-0.352-0.531C201.38,247.671,200.373,247.012,199.456,246.399z
		 M183.504,324.349c-0.748,0.018-3.28,1.596-3.378,2.122c-0.044,0.236,0.227,0.53,0.381,0.854c0.717-0.557,1.271-0.985,1.975-1.532
		c0.028,0.589,0.062,0.97,0.062,1.351c0.005,2.516,0.007,5.032,0,7.548c-0.002,0.622,0.041,1.152,0.96,0.834
		C183.504,331.823,183.504,328.126,183.504,324.349z M236.512,217.27c-0.79,0.108-1.492,0.202-2.194,0.302
		c-0.075,0.011-0.186,0.041-0.211,0.095c-0.437,0.923-1.242,0.63-1.969,0.614c-0.733-0.016-1.362,0.106-1.304,1.214
		c1.52,0.165,3.018,0.299,4.507,0.497c1.151,0.153,1.669-0.2,1.902-1.446c-0.33-0.086-0.663-0.174-1.074-0.281
		C236.302,217.878,236.413,217.556,236.512,217.27z M226.437,233.985c0.039-0.224,0.078-0.448,0.117-0.673
		c-1.343-0.669-2.685-1.339-3.377-1.685c-1.276,0.701-2.265,1.244-3.254,1.787c0.131,0.198,0.262,0.396,0.394,0.593
		c0.77,0.222,1.579,0.712,2.301,0.606C223.874,234.429,224.781,232.778,226.437,233.985z M177.255,270.082
		c-0.978-1.126-1.908,0.101-2.954,0.099c0.588,0.77,1.648,1.232,1.847,1.938c0.366,1.302,1.656,0.771,2.299,1.562
		c0.531,0.654,1.702,0.79,2.589,1.155c0.064-0.089,0.129-0.178,0.194-0.267c-0.603-0.69-1.206-1.38-1.848-2.116
		c-0.256-0.147-0.601-0.356-0.955-0.548c-0.303-0.164-0.615-0.313-0.928-0.459c-0.286-0.133-0.579-0.252-0.869-0.377
		C176.823,270.767,177.014,270.463,177.255,270.082z M179.474,226.375c-0.019,0.15-0.037,0.301-0.055,0.452
		c1.354,1.381,6.047,1.188,8.177-0.458c-0.527-0.083-0.912-0.143-1.33-0.208c0.031-0.22,0.073-0.514,0.135-0.944
		c-0.698-0.037-1.301-0.069-1.903-0.102c-0.003,0.113-0.007,0.225-0.01,0.338c0.208,0.08,0.417,0.159,0.625,0.239
		c-0.134-0.084-0.268-0.168-0.401-0.253c-0.362,0.295-0.726,0.59-1.088,0.884c0.019,0.122-0.456,0.067-0.93,0.074
		c-0.638,0.009-1.274,0.087-1.911,0.091C180.346,226.489,179.91,226.415,179.474,226.375z M78.466,245.078c0,2.141,0,4.072,0,6
		c0.784,0,1.478,0,2.502,0c-1.4-1.287,0.113-3.242-1.548-4.287c-0.058-0.036-0.064-0.246-0.02-0.338
		C79.863,245.515,79.084,245.458,78.466,245.078z M218.292,238.24c0.577,2.56,1.099,2.864,3.244,2.164
		c0.519-0.169,1.167-0.548,1.561-0.379c1.06,0.455,1.353-0.262,2.033-0.966c-1.003,0.158-1.755,0.276-2.507,0.394
		c-0.021-0.096-0.042-0.191-0.062-0.287c0.194-0.21,0.389-0.421,0.523-0.567c-0.453-0.207-0.85-0.388-1.368-0.625
		C220.898,239.635,219.606,238.938,218.292,238.24z M268.081,247.531c-0.39,0.08-0.767,0.184-1.15,0.229
		c-0.703,0.084-1.476-0.017-2.091,0.252c-0.38,0.166-0.696,0.867-0.711,1.337c-0.008,0.275,0.629,0.802,0.984,0.809
		c0.737,0.015,1.506-0.166,2.217-0.401C268.622,249.328,268.89,248.423,268.081,247.531z M146.683,248.097
		c-0.199-0.6-0.418-0.915-0.37-1.182c0.156-0.875-0.278-1.39-1.123-1.109c-0.781,0.259-1.583,0.577-2.231,1.062
		c-0.3,0.224-0.345,0.911-0.324,1.38c0.008,0.183,0.536,0.52,0.787,0.486C144.481,248.591,145.527,248.334,146.683,248.097z
		 M164.765,222.008c-0.506,0.415-0.79,0.646-1.073,0.878c-0.03-0.099-0.06-0.197-0.089-0.295c-0.234,0.082-0.65,0.127-0.674,0.25
		c-0.215,1.103-0.841,0.454-1.341,0.347c0.305-0.242,0.609-0.483,0.904-0.717c-0.933-0.164-1.89-0.115-2.582-0.52
		c-0.576-0.337-0.841-1.207-1.273-1.886c-0.095,0.548-0.156,0.923-0.225,1.296c-0.053,0.29-0.255,0.65-0.149,0.853
		c0.415,0.793,0.81,1.615,1.977,1.57c0.86-0.033,1.729,0.147,2.594,0.23C163.43,224.071,164.633,223.012,164.765,222.008z
		 M139.117,252.788c-0.126,0.475-0.202,0.761-0.308,1.159c0.405-0.08,0.697-0.137,0.932-0.184c0-1.093,0-2.116,0-3.172
		c-0.126,0.068-0.417,0.226-0.676,0.366c-0.262-0.374-0.523-0.746-0.813-1.161c-0.865,0.968-1.633,1.827-2.401,2.686
		c0.077,0.102,0.155,0.204,0.232,0.305C137.06,252.788,138.037,252.788,139.117,252.788z M89.31,244.559
		c-0.487-0.118-0.764-0.125-0.976-0.246c-1.032-0.594-2.523,0.148-2.586,1.302c-0.051,0.931,0.278,1.381,1.278,1.077
		c0.259-0.079,0.57-0.006,0.814-0.106c0.998-0.407,2.268-0.34,2.949-1.593c-0.818,0.14-1.5,0.256-2.183,0.373
		c-0.053-0.118-0.106-0.235-0.159-0.353C88.688,244.885,88.928,244.759,89.31,244.559z M245.298,239.939
		c0.646-0.152,1.142-0.302,1.648-0.381c0.706-0.11,1.419-0.167,2.129-0.247c0.022-0.173,0.044-0.347,0.066-0.521
		c-0.589-0.16-1.231-0.556-1.757-0.436c-1.721,0.393-1.704,0.464-2.397-1.164c-0.046-0.106-0.117-0.201-0.177-0.3
		c-0.631,0.086-1.148-0.135-1.689-0.236c-0.226-0.042-0.499,0.173-0.878,0.321c1.103,0.92,2.003,1.672,2.903,2.423
		c0.08-0.065,0.159-0.13,0.239-0.195C245.348,239.52,245.31,239.836,245.298,239.939z M114.157,235.133
		c-0.075,0.082-0.15,0.164-0.225,0.245c-0.428-0.132-0.856-0.263-1.284-0.395c-0.031,0.152-0.062,0.304-0.093,0.456
		c1.051,0.179,2.102,0.357,3.175,0.54c-0.078,0.306-0.161,0.634-0.24,0.945c1.133,0.601,1.15,0.597,1.587-0.176
		c-0.757-1.143-1.468-2.216-2.223-3.356c-0.235,0.083-0.603,0.212-1,0.352c-0.46-0.253-0.857-1.279-1.523-0.187
		C112.953,234.092,113.555,234.612,114.157,235.133z M161.012,217.937c-0.045-0.104-0.091-0.208-0.137-0.312
		c-0.52,0.226-1.039,0.452-1.63,0.709c0.512,0.411,0.759,0.734,1.075,0.833c0.484,0.151,1.067,0.311,1.517,0.171
		c0.744-0.232,1.428-0.677,2.109-1.082c0.203-0.121,0.382-0.388,0.433-0.619c0.03-0.136-0.176-0.417-0.338-0.487
		C162.917,216.661,161.712,216.99,161.012,217.937z M193.915,235.331c-0.345,0.731-0.602,1.704-0.838,1.699
		c-0.84-0.018-0.577,0.503-0.45,0.771c0.123,0.259,0.521,0.579,0.769,0.555c1.43-0.135,2.534-0.904,3.494-1.894
		c-0.012-0.148-0.023-0.297-0.035-0.445c-0.886-0.046-1.771-0.092-2.766-0.145C194.118,235.962,194.053,235.76,193.915,235.331z
		 M280.677,274.439c-0.99,0.105-1.884,0.178-2.769,0.309c-0.304,0.045-0.651,0.176-0.854,0.387c-0.125,0.128-0.09,0.671,0.005,0.71
		c1.16,0.482,2.344,0.906,3.618,1.381C280.677,276.226,280.677,275.364,280.677,274.439z M137.825,244.858
		c0.024-0.304,0.045-0.356,0.027-0.378c-0.624-0.755-0.62-0.746,0.231-1.143c0.121-0.056,0.28-0.322,0.245-0.375
		c-0.356-0.542-0.296-1.392-1.301-1.45c-1.246-0.072-1.292,1.083-2.247,1.792C135.902,243.877,136.817,244.344,137.825,244.858z
		 M260.237,243.925c1.206,0.852,2.56,0.891,4.161,0.408c0.699-0.21,1.468-0.851,1.985,0.311c0.038,0.084,0.519-0.028,0.863-0.055
		c-0.819-1.432-3.04-1.909-4.063-1.027c-0.154,0.133-0.418,0.17-0.637,0.191C261.778,243.825,261.008,243.87,260.237,243.925z
		 M116.271,273.629c-0.878-0.053-1.772-0.325-2.488-0.079c-0.599,0.205-1.577,0.8-0.818,1.775c0.634,0,1.188-0.063,1.722,0.012
		C116.191,275.549,116.427,275.33,116.271,273.629z M169.14,274.275c-0.362-0.248-0.772-0.447-1.076-0.753
		c-0.834-0.841-2.603-0.17-2.787-1.908c-1.259,0.543-0.894,1.402-0.786,2.381c0.933-0.754,1.725-0.668,2.356,0.138
		C167.486,274.946,168.235,274.743,169.14,274.275z M264.706,270.799c0.106,0.111,0.172,0.245,0.261,0.263
		c1.124,0.227,2.246,0.538,3.382,0.606c0.512,0.03,1.054-0.434,1.581-0.674c-0.557-0.294-1.09-0.661-1.681-0.854
		c-0.347-0.114-0.792,0.012-1.18,0.092C266.308,270.39,265.556,270.592,264.706,270.799z M219.387,231.657
		c0.689,0.4,1.939,0.119,2.459-1.116c0.321-0.765,0.389-1.636,0.553-2.378C221.371,229.355,220.328,230.565,219.387,231.657z
		 M247.685,274.3c0.326,0.155,0.66,0.203,0.761,0.383c0.505,0.895,0.841,0.979,1.482,0.315c0.383-0.396,0.819-0.739,1.193-1.142
		c0.159-0.171,0.223-0.433,0.329-0.653c-0.255-0.112-0.501-0.286-0.767-0.327C249.447,272.685,248.68,273.562,247.685,274.3z
		 M81.429,244.074c-0.83,0.044-1.689,0.09-2.83,0.151c0.984,1.101,1.86,1.772,3.056,1.914c0.72,0.085,1.015-0.37,0.769-0.946
		C82.23,244.739,81.742,244.411,81.429,244.074z M234.195,269.69c1.612,0.727,2.389,0.532,3.735-0.89
		C236.44,267.811,234.724,268.186,234.195,269.69z M137.386,261.521c-0.112,0.017-0.225,0.034-0.337,0.051
		c-0.188,0.638-0.469,1.268-0.519,1.916c-0.021,0.271,0.451,0.828,0.696,0.826c0.731-0.005,1.46-0.222,2.19-0.356
		c0.027-0.141,0.055-0.282,0.083-0.423c-0.43-0.178-0.86-0.354-1.269-0.523C137.994,262.596,137.69,262.059,137.386,261.521z
		 M165.283,232.947c-0.018-0.1-0.035-0.2-0.053-0.3c-0.678-0.304-1.356-0.607-1.753-0.785c-0.598,0.227-0.998,0.378-1.397,0.53
		c-0.11-0.486-0.22-0.972-0.367-1.62c-0.754-0.499-0.722,0.675-1.211,0.856c0.26,0.316,0.461,0.788,0.794,0.917
		c0.735,0.285,1.53,0.464,2.315,0.555C164.155,233.163,164.725,233.006,165.283,232.947z M179.648,251.506
		c1.426,1.341,2.886,0.875,4.382,0.851c-0.04-0.547-0.07-0.954-0.095-1.286C182.504,251.216,181.226,251.346,179.648,251.506z
		 M216.729,228.946c0.001,0.103,0.002,0.206,0.003,0.309c1.441-0.139,2.733-0.817,4.096-1.241c0.005-0.111,0.009-0.222,0.014-0.333
		c-0.648-0.289-1.297-0.579-1.688-0.754C218.2,227.721,217.465,228.333,216.729,228.946z M110.121,277.284c0-1.264,0-2.299,0-3.495
		c-0.452,0.593-0.761,0.987-1.057,1.392c-0.313,0.427-0.615,0.862-1.05,1.476C108.798,276.89,109.375,277.062,110.121,277.284z
		 M118.967,246.279c-0.292-0.461-0.432-0.941-0.746-1.127c-0.759-0.449-1.594-0.774-2.411-1.118
		c-0.252-0.106-0.547-0.109-0.888-0.172C115.171,245.091,117.382,246.444,118.967,246.279z M138.55,246.267
		c-0.748,0.04-1.538,0.082-2.328,0.123c-0.037,0.151-0.074,0.302-0.111,0.454c0.885,0.447,1.759,0.918,2.665,1.317
		c0.162,0.071,0.517-0.107,0.668-0.273c0.106-0.117,0.1-0.465,0-0.614C139.213,246.929,138.895,246.644,138.55,246.267z
		 M104.771,225.159c1.599-0.167,3.199-0.334,4.816-0.504C109.084,223.321,108.728,223.342,104.771,225.159z M160.88,228.013
		c1.268,0.419,2.5,1.133,3.833,0.053C163.229,226.781,161.853,226.775,160.88,228.013z M267.134,274.096
		c-0.545-0.197-1.082-0.421-1.637-0.585c-0.565-0.167-1.525-0.12-1.656-0.438c-0.481-1.171-1.332-0.764-2.357-0.85
		C263.151,273.883,265.008,274.321,267.134,274.096z M225.989,243.329c-1.965-1.165-3.027-0.807-3.375,1.35
		C223.652,243.739,225.246,244.852,225.989,243.329z M81.381,264.081c0.006-0.193,0.011-0.388,0.017-0.581
		c-0.945-0.438-1.89-0.875-2.834-1.312c-0.465,0.997-0.001,1.624,0.687,1.849C79.896,264.247,80.666,264.081,81.381,264.081z
		 M246.771,273.077c-0.379-0.118-0.83-0.285-0.842-0.259c-0.409,0.934-1.127,0.422-1.736,0.397c-0.807-0.031-1.38,0.618-1.253,1.624
		C243.982,273.742,245.873,274.975,246.771,273.077z M101.27,235.976c-0.079-0.145-0.157-0.29-0.235-0.435
		c-0.639,0.263-1.297,0.491-1.91,0.806c-0.296,0.152-0.508,0.466-0.758,0.707c0.225,0.197,0.436,0.536,0.677,0.559
		c0.379,0.035,0.875-0.029,1.145-0.258C100.624,236.983,100.916,236.444,101.27,235.976z M89.94,250.134
		c0.635-0.38,1.222-0.731,1.809-1.082c-0.051-0.185-0.101-0.371-0.152-0.556c-0.668,0.032-1.337,0.065-2.005,0.097
		c0.072,0.776,0.145,1.552,0.217,2.329c0.112-0.025,0.224-0.05,0.385-0.086C90.097,250.569,90.01,250.327,89.94,250.134z
		 M258.498,272.182c0.013-0.158,0.036-0.43,0.06-0.702c-0.528,0.039-1.057,0.078-1.863,0.139c1.207,1.167,2.021,2.266,3.506,2.304
		c0.085-0.112,0.169-0.224,0.253-0.336C259.834,273.142,259.215,272.696,258.498,272.182z M102.42,253.689
		c-1.591,0.611-3.039,1.168-4.487,1.725c0.774,0.504,3.297-0.032,4.352-0.982C102.458,254.275,102.394,253.856,102.42,253.689z
		 M186.125,233.097c0.021,0.127,0.041,0.254,0.062,0.381c1.729,0.946,2.869,0.727,2.974-0.544c-0.514-0.181-1.021-0.358-1.563-0.549
		c-0.042,0.224-0.084,0.448-0.097,0.519C187.012,232.973,186.569,233.035,186.125,233.097z M179.174,227.773
		c-0.477-1.503-1.459-2.127-2.79-1.957c0.086,0.414,0.172,0.827,0.248,1.193C177.487,227.266,178.264,227.499,179.174,227.773z
		 M167.073,215.882c-0.185-0.615-0.352-1.166-0.441-1.463c-0.645-0.108-1.21-0.377-1.616-0.224c-0.423,0.16-0.691,0.728-0.983,1.067
		C165.001,215.46,165.894,215.642,167.073,215.882z M109.985,258.262c-0.167-0.2-0.333-0.399-0.5-0.6
		c-0.559,0.382-1.232,0.671-1.64,1.175c-0.307,0.38-0.275,1.034-0.395,1.566c0.1,0.01,0.199,0.02,0.299,0.03
		C108.495,259.709,109.24,258.985,109.985,258.262z M268.402,254.87c-0.889-0.869-3.969-0.746-5.029,0
		C265.142,254.87,266.771,254.87,268.402,254.87z M85.662,249.891c0.053,0.145,0.106,0.29,0.159,0.435
		c1.021-0.128,2.042-0.257,3.278-0.413c-0.487-0.627-0.747-0.962-1.056-1.361C87.234,249.006,86.448,249.449,85.662,249.891z
		 M107.854,269.22c0.379,0.436,0.686,0.787,1.024,1.175c0.772-0.812,1.355-1.559,0.858-2.756
		C109.081,268.189,108.504,268.674,107.854,269.22z M167.988,244.686c0.139-1.144,0.142-1.121-0.782-1.04
		c-0.233,0.021-0.482-0.164-0.728-0.247c-0.679-0.23-1.375-0.776-2.228,0.072C165.613,243.915,166.762,244.288,167.988,244.686z
		 M265.611,274.881c-1.373-0.208-2.603-0.395-3.831-0.581C263.359,275.867,264.535,276.008,265.611,274.881z M98.312,250.988
		c0.345,0.635,1.543,0.545,2.751-0.163c0.65-0.381,0.612-0.688,0.139-1.089C100.191,250.174,99.25,250.582,98.312,250.988z
		 M178.689,256.116c0.155-0.146,0.38-0.36,0.606-0.574c-0.231,0.006-0.474,0.057-0.689,0.001c-0.158-0.041-0.267-0.24-0.418-0.338
		c-0.327-0.212-0.647-0.461-1.008-0.584c-0.239-0.082-0.543,0.029-0.818,0.054c0.134,0.333,0.181,0.846,0.421,0.962
		C177.303,255.89,177.922,255.939,178.689,256.116z M179.982,239.792c-1.566-1.187-2.262-1.22-3.246-0.24
		C177.695,240.698,178.771,240.079,179.982,239.792z M278.938,258.014c0.663,0.419,1.112,0.703,1.562,0.987
		c0.072-0.646,0.157-1.29,0.206-1.937c0.009-0.126-0.122-0.263-0.318-0.653C279.864,256.99,279.448,257.45,278.938,258.014z
		 M142.54,251.579c0.025,0.136,0.05,0.273,0.075,0.41c0.939-0.078,1.878-0.156,3.031-0.252c-0.427-0.607-0.667-0.948-0.921-1.311
		C143.956,250.832,143.248,251.205,142.54,251.579z M108.203,228.226c-0.473,0.734-0.783,1.213-1.149,1.781
		c1.737,0.233,2.377-0.113,2.498-1.304c-0.312,0.26-0.559,0.466-0.831,0.694C108.58,229.078,108.472,228.834,108.203,228.226z
		 M174.798,247.382c-0.808,0.393-1.073,0.85-0.269,1.447c0.643,0.477,2.103,0.328,2.959-0.402c-0.385-0.093-0.696-0.279-0.892-0.196
		C175.361,248.757,175.361,248.773,174.798,247.382z M251.762,275.003c0.054,0.153,0.107,0.307,0.161,0.46
		c0.49-0.147,1.001-0.252,1.457-0.472c0.122-0.059,0.186-0.622,0.09-0.689c-0.498-0.351-1.057-0.617-1.594-0.912
		c-0.062,0.111-0.123,0.223-0.185,0.334c0.215,0.247,0.429,0.494,0.646,0.743C252.136,274.654,251.949,274.828,251.762,275.003z
		 M132.954,242.526c-0.226,0.303-0.484,0.556-0.447,0.614c0.406,0.617,0.859,1.203,1.299,1.798c0.2-0.186,0.594-0.504,0.571-0.537
		C133.961,243.793,133.496,243.219,132.954,242.526z M164.491,254.14c1.385-0.382,2.764-0.761,4.45-1.226
		C167.394,252.382,165.329,253.071,164.491,254.14z M186.254,235.564c0.045,0.574,0.031,1.06,0.144,1.516
		c0.043,0.178,0.392,0.432,0.558,0.403c0.519-0.091,1.017-0.301,1.819-0.561C187.743,236.367,186.991,235.962,186.254,235.564z
		 M247.235,247.816c0.033-0.204,0.066-0.408,0.1-0.613c-0.595-0.222-1.184-0.464-1.788-0.655c-0.223-0.07-0.484-0.018-0.729-0.021
		c0.088,0.314,0.107,0.852,0.274,0.903C245.783,247.64,246.517,247.701,247.235,247.816z M178.572,197.529
		c0.382,0.614,0.691,1.604,1.078,1.635c1.028,0.084,0.657-0.874,0.744-1.482C179.855,197.637,179.378,197.597,178.572,197.529z
		 M207.64,260.53c0.052-0.447,0.104-0.895,0.155-1.342c0.041,0.044,0.083,0.089,0.124,0.134c0.237-0.385,0.475-0.771,0.836-1.357
		C206.722,258.298,206.591,258.616,207.64,260.53z M132.205,251.482c-0.955-0.732-1.733-1.33-2.511-1.927
		C130.16,251.395,130.52,251.644,132.205,251.482z M113.829,257.285c-0.777-0.772-1.466-1.457-2.2-2.188
		C111.312,256.556,112.196,257.48,113.829,257.285z M207.835,250.036c0,0.827,0,1.306,0,2.058c0.673-0.337,1.164-0.583,1.654-0.83
		C209.011,250.909,208.532,250.553,207.835,250.036z M270.094,253.303c0.032-0.146,0.064-0.294,0.097-0.441
		c-0.782-0.324-1.563-0.647-2.716-1.125c0.312,0.623,0.4,1.118,0.632,1.197C268.736,253.15,269.427,253.192,270.094,253.303z
		 M166.688,247.643c-0.399,0.142-0.771,0.186-1.024,0.382c-0.489,0.379-0.375,0.833,0.195,0.919c0.542,0.083,1.121-0.083,1.877-0.16
		C167.224,248.227,166.956,247.934,166.688,247.643z M144.425,258.848c-0.234,0.7-0.421,1.261-0.635,1.901
		c1.618,0.963,0.973-1.024,1.695-1.311C145.04,259.19,144.718,259.011,144.425,258.848z M107.018,245.335
		c0.909,0.224,2.136-0.871,2.372-2.484C108.622,243.656,107.854,244.46,107.018,245.335z M267.932,256.231
		c0.019,0.169,0.037,0.337,0.056,0.505c0.775,0,1.551,0,2.479,0c-0.157-0.395-0.275-0.691-0.363-0.912
		c-0.464,0.055-0.823,0.078-1.175,0.146C268.591,256.033,268.263,256.143,267.932,256.231z M106.649,219.85
		c1.068,0.178,1.857,0.31,2.647,0.441c0.023-0.147,0.047-0.293,0.071-0.44C108.562,219.716,107.976,218.336,106.649,219.85z
		 M196.114,250.214c0.049-0.143,0.099-0.285,0.147-0.427c-0.363-0.183-0.771-0.565-1.078-0.497c-0.357,0.08-0.625,0.555-0.932,0.859
		c0.063,0.101,0.126,0.202,0.189,0.304C194.999,250.373,195.557,250.293,196.114,250.214z M234.36,234.029
		c-0.711,0-1.315-0.01-1.916,0.027c-0.033,0.002-0.043,0.396-0.062,0.608c0.609-0.055,1.218-0.11,1.826-0.17
		C234.224,234.493,234.232,234.425,234.36,234.029z M237.194,224.535c0.961,0.18,1.688,0.316,2.414,0.453
		c0.021-0.129,0.043-0.259,0.064-0.389C238.963,224.341,238.411,223.209,237.194,224.535z M191.555,218.002
		c0.712-0.344,1.276-0.617,1.842-0.89c-0.035-0.111-0.07-0.223-0.104-0.334c-0.5-0.182-1-0.363-1.511-0.548
		C191.702,216.855,191.638,217.355,191.555,218.002z M199.307,236.439c0.026,0.149,0.053,0.298,0.079,0.447
		c0.832,0.203,1.743,0.689,2.282-0.808C200.766,236.216,200.036,236.328,199.307,236.439z M113.737,249.297
		c0.143-0.018,0.286-0.036,0.428-0.054c-0.022-0.357,0.084-0.813-0.097-1.049c-0.279-0.364-0.754-0.577-1.146-0.854
		c-0.078,0.094-0.156,0.189-0.233,0.283C113.038,248.182,113.388,248.739,113.737,249.297z M239.912,229.013
		c-0.551-1.175-0.724-1.163-2.364,0C238.289,229.013,239.036,229.013,239.912,229.013z M195.694,260.584
		c0.091-0.108,0.182-0.216,0.272-0.324c-0.407-0.488-0.814-0.977-1.3-1.558c-0.208,0.5-0.355,0.854-0.523,1.258
		C194.696,260.183,195.195,260.384,195.694,260.584z M260.586,259.868c-0.005,0.113-0.01,0.226-0.014,0.338c0.86,0,1.721,0,2.622,0
		C262.827,259.466,262.569,259.439,260.586,259.868z M240.018,267.938c-0.624,0.542-1.181,1.026-1.867,1.622
		C239.915,269.645,240.246,269.351,240.018,267.938z M214.381,228.655c-0.083,0.091-0.166,0.182-0.249,0.273
		c0.259,0.275,0.493,0.74,0.783,0.779c0.409,0.054,0.86-0.208,1.293-0.334c-0.02-0.107-0.041-0.215-0.062-0.322
		C215.559,228.918,214.97,228.787,214.381,228.655z M154.775,232.041c0.622,0.508,1.024,0.836,1.485,1.213
		c0.117-0.689,0.202-1.186,0.292-1.711C156.082,231.674,155.622,231.804,154.775,232.041z M106.899,249.636
		c1.737-0.023,2.354-0.379,2.415-1.3C108.439,248.807,107.669,249.221,106.899,249.636z M100.49,244.13
		c-0.18,0.794-0.297,1.313-0.415,1.833c0.113,0.035,0.226,0.07,0.339,0.105c0.354-0.28,0.708-0.56,1.152-0.912
		C101.235,244.84,100.997,244.613,100.49,244.13z M166.481,259.813c-1.7-0.144-2.112,0.136-1.951,1.095
		c0.283-0.195,0.574-0.43,0.895-0.609C165.762,260.11,166.128,259.973,166.481,259.813z M188.562,243.225
		c0.037-0.1,0.075-0.2,0.113-0.3c-0.403-0.253-0.783-0.616-1.221-0.706c-0.166-0.034-0.461,0.555-0.81,1.006
		C187.442,243.225,188.002,243.225,188.562,243.225z M78.463,274.136c0.952-0.739,0.957-1.468,0-2.097
		C78.463,272.757,78.463,273.418,78.463,274.136z"/>
	<path fill-rule="evenodd" clip-rule="evenodd" fill="#FFFFFF" d="M160.944,305.282c0.006,2.021-1.459,3.514-3.446,3.51
		c-2.149-0.003-3.576-1.384-3.598-3.481c-0.022-2.097,1.442-3.611,3.487-3.606C159.409,301.709,160.938,303.247,160.944,305.282z"/>
	<path fill-rule="evenodd" clip-rule="evenodd" fill="#FFFFFF" d="M193.522,308.779c-2.163-0.082-3.577-1.593-3.473-3.713
		c0.096-1.965,1.658-3.419,3.61-3.361c2.031,0.061,3.564,1.715,3.485,3.761C197.071,307.412,195.494,308.854,193.522,308.779z"/>
	<path fill-rule="evenodd" clip-rule="evenodd" fill="#FFFFFF" d="M207.747,305.409c0-1.302-0.012-2.405,0.013-3.509
		c0.004-0.159,0.196-0.457,0.279-0.449c0.774,0.071,1.687-0.016,2.271,0.374c0.446,0.299,0.628,1.216,0.649,1.866
		c0.024,0.769-0.48,1.331-1.323,1.449C209.089,305.217,208.543,305.296,207.747,305.409z"/>
	<path fill-rule="evenodd" clip-rule="evenodd" fill="#FFFFFF" d="M177.021,329.742c-0.233,1.187-0.399,2.453-0.748,3.667
		c-0.275,0.957-1.016,1.496-2.078,1.493c-1.021-0.003-1.669-0.559-2-1.442c-0.871-2.332-0.867-4.69-0.002-7.026
		c0.334-0.9,1.015-1.432,2.008-1.44c1.046-0.009,1.781,0.537,2.08,1.5C176.597,327.513,176.762,328.578,177.021,329.742z"/>
	<path fill-rule="evenodd" clip-rule="evenodd" fill="#FFFFFF" d="M190.964,334.9c-1.604,0.021-2.664-0.998-2.668-2.568
		c-0.003-1.503,1.155-2.686,2.625-2.68c1.421,0.007,2.578,1.143,2.623,2.577C193.594,333.787,192.539,334.879,190.964,334.9z"/>
</g>
</svg>
